<?xml version="1.0" standalone="no"?>
<!DOCTYPE svg PUBLIC "-//W3C//DTD SVG 20010904//EN"
 "http://www.w3.org/TR/2001/REC-SVG-20010904/DTD/svg10.dtd">
<svg version="1.0" xmlns="http://www.w3.org/2000/svg"
 width="400px" height="400px" viewBox="0 0 443.000000 626.000000"
 preserveAspectRatio="xMidYMid meet">

<g transform="translate(0.000000,626.000000) scale(0.100000,-0.100000)"
fill="hsl(38, 74%, 49%)" stroke="none">
<path d="M1943 5844 c-612 -89 -1090 -467 -1179 -932 -11 -60 -14 -223 -14
-858 0 -495 4 -784 10 -784 6 0 10 300 13 808 3 921 -2 860 96 1057 186 374
622 636 1153 694 256 28 528 -1 774 -84 468 -156 793 -490 854 -875 6 -40 10
-357 10 -832 0 -505 3 -768 10 -768 7 0 10 271 10 794 l0 793 -25 98 c-115
456 -577 805 -1178 890 -126 18 -409 18 -534 -1z"/>
<path d="M2155 5664 c-16 -2 -70 -9 -118 -15 -497 -62 -931 -372 -1051 -749
-43 -135 -46 -195 -46 -931 0 -607 2 -699 15 -699 12 0 15 101 17 763 l3 762
33 94 c106 305 371 545 735 666 200 67 287 79 532 80 172 0 240 -4 310 -18
463 -92 818 -347 950 -681 55 -138 55 -133 55 -928 0 -659 2 -738 15 -738 14
0 16 78 13 748 -4 737 -4 748 -26 826 -114 408 -511 714 -1037 801 -90 15
-343 27 -400 19z"/>
<path d="M2117 5455 c-271 -44 -490 -140 -672 -292 -128 -108 -223 -248 -276
-408 l-24 -70 -3 -707 c-2 -485 1 -708 8 -708 7 0 10 209 10 654 0 707 3 761
54 887 59 144 189 300 332 399 223 154 494 233 799 233 250 0 430 -40 640
-143 307 -151 496 -385 534 -663 7 -49 11 -320 11 -723 0 -441 3 -644 10 -644
8 0 10 221 8 708 l-3 707 -24 70 c-116 347 -426 591 -869 685 -130 28 -409 36
-535 15z"/>
<path d="M2294 5269 c-405 -28 -777 -256 -902 -554 -52 -122 -52 -124 -52
-807 0 -419 3 -638 10 -638 7 0 10 216 10 628 0 700 0 693 70 837 158 326 576
532 1040 512 431 -19 798 -233 937 -545 51 -116 53 -139 53 -809 0 -409 3
-623 10 -623 7 0 10 219 10 638 0 717 2 691 -75 849 -166 338 -617 546 -1111
512z"/>
<path d="M2360 5074 c-14 -2 -56 -9 -95 -15 -163 -26 -336 -99 -463 -197 -115
-87 -195 -196 -244 -332 -23 -65 -23 -65 -26 -662 -3 -535 -1 -598 12 -598 14
0 16 63 16 583 0 491 2 592 15 641 53 204 240 391 486 486 224 86 548 94 772
19 229 -77 409 -219 498 -391 59 -115 59 -118 59 -755 0 -520 2 -583 16 -583
13 0 15 62 11 593 -3 624 -3 618 -50 730 -40 94 -158 231 -258 298 -110 75
-252 133 -399 164 -73 16 -299 28 -350 19z"/>
<path d="M2348 4864 c-300 -54 -542 -247 -603 -479 -13 -50 -15 -145 -15 -587
0 -328 4 -528 10 -528 5 0 10 208 12 543 l3 542 24 60 c37 91 80 153 161 228
171 158 445 239 707 208 214 -25 385 -102 515 -231 90 -89 141 -183 158 -290
6 -38 10 -270 10 -562 0 -338 3 -498 10 -498 8 0 10 173 8 548 -4 624 0 594
-93 732 -85 125 -220 221 -394 281 -137 48 -356 62 -513 33z"/>
<path d="M2497 4680 c-234 -29 -440 -158 -525 -328 l-37 -76 -5 -503 c-4 -391
-2 -503 7 -503 9 0 13 115 15 498 l3 497 32 65 c43 86 99 149 181 203 138 92
246 122 437 122 165 0 227 -14 360 -79 101 -50 175 -115 230 -200 63 -99 65
-117 65 -638 0 -316 3 -468 10 -468 7 0 10 161 8 503 l-3 502 -34 70 c-49 101
-153 201 -263 254 -140 68 -329 99 -481 81z"/>
<path d="M2525 4474 c-158 -31 -311 -138 -371 -261 l-29 -58 -3 -442 c-3 -395
-1 -443 13 -443 13 0 15 49 15 438 l0 439 31 61 c54 108 177 198 324 237 81
22 241 22 325 0 149 -38 278 -132 331 -240 l24 -50 3 -442 c2 -388 4 -443 18
-443 13 0 15 52 12 438 l-3 437 -32 65 c-102 208 -379 319 -658 264z"/>
<path d="M2593 4275 c-108 -29 -191 -90 -241 -174 l-27 -46 -3 -392 c-2 -268
0 -393 8 -393 7 0 10 121 10 373 0 370 0 372 24 423 31 67 87 120 164 157 178
84 408 47 526 -84 74 -82 76 -97 76 -511 0 -242 3 -358 10 -358 8 0 10 123 8
388 l-3 387 -29 53 c-48 86 -134 147 -251 178 -64 18 -205 17 -272 -1z"/>
<path d="M752 2173 l3 -818 23 -74 c143 -466 612 -800 1225 -872 129 -15 423
-6 547 16 234 42 496 150 672 275 48 34 125 101 171 149 129 133 197 245 253
411 l29 85 3 823 c2 543 -1 822 -7 822 -7 0 -11 -278 -13 -807 -3 -798 -4
-809 -25 -886 -119 -419 -541 -748 -1091 -849 -141 -26 -465 -31 -597 -10
-587 96 -1013 416 -1147 862 -22 75 -22 79 -26 883 -2 523 -6 807 -13 807 -6
0 -9 -283 -7 -817z"/>
<path d="M812 2243 c4 -727 4 -750 25 -824 107 -382 460 -677 935 -783 442
-99 913 -21 1257 208 222 148 369 341 433 571 22 79 22 89 26 828 3 669 1 747
-13 747 -13 0 -15 -79 -15 -737 0 -694 -1 -743 -19 -818 -92 -380 -462 -684
-959 -786 -141 -29 -422 -37 -568 -15 -363 53 -667 208 -864 439 -74 87 -145
213 -182 322 l-23 70 -3 763 c-2 673 -4 762 -18 762 -13 0 -15 -84 -12 -747z"/>
<path d="M882 2283 l3 -708 24 -70 c99 -300 350 -527 711 -643 138 -44 247
-63 406 -69 378 -15 743 105 984 325 91 82 154 167 206 277 74 156 74 156 74
920 0 422 -4 675 -10 675 -6 0 -10 -263 -13 -697 -3 -635 -5 -703 -21 -758
-45 -149 -116 -264 -237 -381 -170 -163 -397 -271 -674 -321 -121 -22 -379
-22 -500 0 -433 78 -769 320 -886 637 -30 82 -32 93 -39 290 -3 113 -6 436 -6
718 1 413 -1 512 -12 512 -10 0 -12 -133 -10 -707z"/>
<path d="M950 2361 c0 -371 4 -650 10 -680 24 -129 94 -254 205 -367 125 -126
262 -207 450 -267 171 -54 438 -74 611 -47 272 42 502 156 661 324 129 138
187 260 204 430 5 50 9 349 9 664 0 502 -2 572 -15 572 -13 0 -15 -76 -15
-628 0 -593 -1 -633 -20 -706 -82 -322 -404 -566 -835 -632 -120 -19 -328 -14
-452 10 -344 68 -626 267 -738 521 -53 118 -55 155 -55 820 0 403 -3 615 -10
615 -7 0 -10 -216 -10 -629z"/>
<path d="M1012 2398 l3 -593 28 -78 c38 -108 95 -194 186 -279 162 -152 359
-234 623 -260 460 -46 900 188 1021 542 21 64 22 77 25 663 3 533 1 597 -13
597 -13 0 -15 -65 -15 -588 0 -509 -2 -596 -16 -643 -71 -241 -295 -433 -602
-517 -90 -24 -112 -26 -297 -26 -220 0 -264 8 -436 76 -213 84 -385 250 -453
437 -20 54 -21 80 -24 659 -2 530 -5 602 -18 602 -13 0 -15 -69 -12 -592z"/>
<path d="M1082 2443 l3 -548 26 -66 c72 -186 250 -336 481 -407 256 -80 581
-43 805 89 81 48 202 171 241 245 61 118 62 125 62 706 0 345 -3 528 -10 528
-7 0 -10 -178 -10 -515 0 -336 -4 -532 -11 -567 -35 -169 -162 -315 -354 -409
-283 -138 -625 -128 -903 27 -155 86 -280 256 -302 409 -5 39 -10 292 -10 563
0 334 -3 492 -10 492 -8 0 -10 -173 -8 -547z"/>
<path d="M1150 2511 c0 -442 1 -484 19 -540 55 -177 227 -317 456 -372 121
-29 296 -29 410 0 215 56 385 192 448 359 21 55 22 73 25 545 3 435 1 487 -12
487 -14 0 -16 -53 -16 -478 0 -538 0 -535 -73 -644 -73 -109 -207 -198 -367
-244 -90 -26 -327 -27 -420 -1 -135 37 -256 108 -341 200 -16 18 -46 66 -67
106 l-37 75 -3 493 c-2 305 -7 493 -12 493 -6 0 -10 -181 -10 -479z"/>
<path d="M1212 2552 l3 -437 32 -66 c127 -258 517 -356 821 -206 84 41 170
124 208 202 l29 60 3 443 c2 287 -1 442 -7 442 -6 0 -11 -156 -13 -433 l-3
-432 -33 -67 c-57 -116 -178 -205 -332 -244 -84 -22 -234 -21 -319 1 -149 38
-280 133 -332 240 l-24 50 -3 443 c-2 388 -4 442 -18 442 -13 0 -15 -50 -12
-438z"/>
<path d="M1282 2603 l3 -388 30 -54 c65 -118 209 -191 380 -191 181 0 326 75
390 203 l25 51 0 383 c0 240 -4 383 -10 383 -6 0 -10 -145 -12 -382 -3 -357
-4 -386 -23 -423 -47 -95 -165 -169 -301 -188 -181 -26 -369 56 -436 191 -23
46 -23 54 -26 425 -2 240 -7 377 -13 377 -6 0 -9 -137 -7 -387z"/>
</g>
</svg>
